<?xml version="1.0" encoding="UTF-8"?>
<svg id="Layer_2" data-name="Layer 2" xmlns="http://www.w3.org/2000/svg" viewBox="0 0 401.12 459.33">
  <defs>
    <style>
      .cls-1 {
        fill: #010101;
      }

      .cls-1, .cls-2, .cls-3, .cls-4, .cls-5, .cls-6 {
        fill-rule: evenodd;
        stroke-width: 0px;
      }

      .cls-2 {
        fill: #60a801;
      }

      .cls-3 {
        fill: #e10629;
      }

      .cls-4 {
        fill: #ffdf05;
      }

      .cls-5 {
        fill: #fff;
      }

      .cls-6 {
        fill: #f95777;
      }
    </style>
  </defs>
  <g id="katman_1" data-name="katman 1">
    <g>
      <path class="cls-5" d="m223.23,203.48c.67-7.7-6.76-14.53-16.59-15.39h0c-9.83-.86-18.34,4.58-19,12.15-.66,7.57,6.77,14.41,16.6,15.27h0c9.83.86,18.34-4.58,19-12.15v.12Zm58.93,1.13l.24.02c7.64.67,14.61-7.53,15.55-18.3.94-10.78-4.49-20.06-12.14-20.72h0c-7.64-.67-14.61,7.53-15.55,18.3-.94,10.78,4.49,20.06,12.14,20.72l-.24-.02Zm-155.39-16.27l.24.02c7.65.67,14.62-7.53,15.56-18.31h0c.94-10.78-4.5-20.07-12.15-20.74h0c-7.65-.67-14.62,7.53-15.56,18.31h0c-.94,10.78,4.5,20.07,12.15,20.74h0l-.24-.02Zm203.46-120.18c-6.06-7.91-14.34-13.79-24.55-14.63-1.17-.1-2.33-.23-3.47-.39-.43-.06-.7-.29-.84-.69l-4.14-12.29c-.03-.08-.04-.16-.04-.25,0-.3.18-.58.46-.7,14.8-6.25,31.12-8.65,48.98-7.22.42.03.73.23.92.61,4.95,9.12,6.97,20.53,7.51,31.14.02.43-.18.65-.62.65-7.93.11-15.61,1.49-23.01,4.13-.48.17-.88.05-1.2-.35Zm-197.74,97.88c2.76.19,5.17-2.22,5.39-5.38.22-3.16-1.85-5.88-4.61-6.06-2.76-.19-5.17,2.22-5.39,5.38-.22,3.16,1.85,5.88,4.61,6.06Zm155.18,16.66c2.75.27,5.24-2.07,5.55-5.22.31-3.15-1.67-5.93-4.43-6.2-2.75-.27-5.24,2.07-5.55,5.22-.31,3.15,1.67,5.93,4.43,6.2Zm-183.97,49.2c-.91-.54-1.4-1.35-1.46-2.41l-.48-7.08c-.09-1.33.36-1.54,1.33-.64,7.17,6.61,13.4,12.91,18.7,18.92.81.92.66,1.12-.45.62-5.42-2.45-11.29-5.59-17.63-9.4Zm131.07,39.67l.31.04c.36.06.62.37.62.73,0,.15-.05.3-.14.43-1.08,1.54-2.5,2.58-4.25,3.13-4.49,1.38-7.83-.02-10.02-4.19l13.48-.13Zm-24.21,37.41c-1.6-1.06-2.98-2.36-4.13-3.89-5.11-6.78,2.16-15.91,9.83-13.91,2.41.64,4.43,2.68,6.24,4.33.26.23.63.23.88,0,7.81-6.8,16.19-12.11,25.14-15.93,8.31-3.53,20.05-5.79,27.99-1.23,11.97,6.87,6.32,22.21-.42,31.05-7.64,10.03-17.63,18.49-29.97,25.38-8.47,4.72-20.56,8.48-29.79,5.16-7.08-2.53-10.52-7.65-10.33-15.36.12-5.08,2.27-10.05,4.8-14.51.22-.38.11-.86-.25-1.1h0Zm-166.12-2c-1.15-11.96,4.75-23.6,16.14-27.98,1.95-.75,3.89-1.15,5.82-1.2,1.47-.04,2.36.66,2.66,2.1l.06.27c.04.17.06.35.06.53,0,1.27-.94,2.35-2.2,2.53-12.89,1.76-19.11,14.03-16.26,26.17.43,1.83-.67,3.2-2.55,3.42-1.24.14-2.12-.36-2.63-1.5-.57-1.27-.94-2.72-1.09-4.36Zm87.6,10.92c-10.83-9.43-13.19-29.46-1.56-39.14,1.38-1.14,2.73-1.11,4.04.11.43.4.72.94.87,1.61.19.79-.1,1.63-.73,2.15-3,2.39-4.82,5.01-5.47,7.86-2.08,9.2.25,17.09,6.97,23.67.87.84,1,1.79.41,2.84-.18.31-.4.58-.66.83-1.26,1.2-2.55,1.22-3.86.08Zm158.42,3.28l7.66,15.11c-12.05,5.47-19.26-8.27-7.66-15.11Zm-15.75,28.94c0-4.47-3.62-8.09-8.09-8.09s-8.09,3.62-8.09,8.09,3.62,8.09,8.09,8.09,8.09-3.62,8.09-8.09Zm-120.5,6.3c0-4.46-3.62-8.08-8.08-8.08s-8.08,3.62-8.08,8.08,3.62,8.08,8.08,8.08,8.08-3.62,8.08-8.08Zm40.35,1.67c0-4.48-3.63-8.11-8.11-8.11s-8.11,3.63-8.11,8.11,3.63,8.11,8.11,8.11,8.11-3.63,8.11-8.11Zm42.81,3.27c0-4.47-3.62-8.09-8.09-8.09s-8.09,3.62-8.09,8.09,3.62,8.09,8.09,8.09,8.09-3.62,8.09-8.09Zm66.46,7.61c0-4.48-3.63-8.1-8.1-8.1s-8.1,3.63-8.1,8.1,3.63,8.1,8.1,8.1,8.1-3.63,8.1-8.1Zm-193.55-7.05c-1.37,2.4-2.75,4.09-4.15,5.07-2.93,2.03-6.34,2-10.23-.07.18-.79.47-1.5.88-2.14.21-.32.5-.48.87-.5,4.13-.13,8.34-.92,12.63-2.37Zm21.97,13.8c0-4.47-3.62-8.09-8.09-8.09s-8.09,3.62-8.09,8.09,3.62,8.09,8.09,8.09,8.09-3.62,8.09-8.09Zm129.15,3.34c0-4.48-3.63-8.1-8.1-8.1s-8.1,3.63-8.1,8.1,3.63,8.1,8.1,8.1,8.1-3.63,8.1-8.1Zm-88.14,2.66c0-4.47-3.62-8.09-8.09-8.09s-8.09,3.62-8.09,8.09,3.62,8.09,8.09,8.09,8.09-3.62,8.09-8.09Zm41.88,1.31c0-4.47-3.62-8.09-8.09-8.09s-8.09,3.62-8.09,8.09,3.62,8.09,8.09,8.09,8.09-3.62,8.09-8.09Zm-5.64,35.44c11.97,9.71,29.77,5.7,36.72-7.74.21-.39.47-.43.79-.13,1.13,1.05,2.08,2.29,3.3,3.25,10.74,8.36,25.73,7.07,34.36-3.59.48-.59.67-.51.59.25-2.48,22.48-16.54,38.85-40.03,39.53-13.69.4-28.05-4.7-35.95-16.34-.23-.33-.35-.71-.34-1.11l-.08-13.82c0-.54.2-.64.63-.3Zm-46.39-7.01c7.71,13.05,23.71,16.1,35.93,7.44.45-.32.67-.21.67.34v12.95h-.01c0,.6-.18,1.18-.51,1.67-8.25,12.57-25.38,17.45-39.43,15.92-21.1-2.3-33.91-17.54-36.28-38.4-.1-.84.12-.93.64-.26,9.84,12.53,27.93,12.28,38.13.28.32-.38.61-.36.86.07ZM92.61,67.25c-2.49-2.35-8.02,1.49-9.87,3.13-.48.42-.77.32-.88-.3-3.83-21.82.19-45.87,17.8-60.15.4-.33.87-.49,1.4-.47,2.26.07,4.46.33,6.61.77,17.71,3.6,33.95,12.77,49.49,22.97,1.09.71,2.25,1.02,3.49.94,20.68-1.48,40.54-1.46,59.59.04.15.02.24.18.18.32-4.16,8.54-7.05,17.18-8.67,25.94-2.75,14.84-.57,33.15,14.17,40.78,12.85,6.65,28.85,4.23,42.32-.74.41-.15.71-.02.89.37,6.79,14.89,18.52,22.24,35.19,22.07.48,0,.81.21,1,.66,9.22,21.8,26.92,33.4,49.76,20.28.07-.04.15-.06.22-.06.23,0,.42.17.45.39,1.02,6.89,1.41,13.7,1.17,20.42-.01.42-.23.64-.66.65-6.85.24-12.98.76-18.41,1.56-2.83.42-4.77,3.82-1.86,5.71,1.31.86,2.87,1.28,4.66,1.25,5.33-.07,10.26-.09,14.8-.05.48,0,.7.25.64.73-.96,7.31-2.67,14.47-5.12,21.48-.17.48-.5.68-.99.61-3.11-.44-6.74-1.15-9.83-.7-1.17.17-2.03,1.17-2.03,2.34,0,.16.02.33.05.49.59,2.85,6.72,4.36,9.04,4.96.42.11.54.36.35.75-3.43,7.33-7.71,14.22-12.86,20.66-.25.3-.56.39-.93.26-2.28-.76-4.63-1.64-7.05-2.62-2.83-1.15-5.92-.46-6.26,3.02-.13,1.28.33,2.24,1.38,2.85,1.87,1.1,3.95,2.12,6.23,3.06.14.06.24.19.24.35,0,.1-.04.2-.11.27-12.9,12.7-30.74,20.33-48.59,24.52-20.87,4.9-42.78,6.68-65.72,5.33-.45-.03-.79-.23-1.01-.62-8.02-13.5-22.59-24.66-39.19-21.23-7.17,1.49-13.46,5.76-18.04,11.75-.39.51-.75.49-1.09-.04-15.34-23.86-35.07-44.69-58.91-59.91-3.95-2.52-8.59-3.11-12.36-.23-.32.24-.67.33-1.07.26-4.1-.74-8.37-.72-12.79.07-.05,0-.1.01-.14.01-.36,0-.67-.22-.8-.55l-2.14-5.52c-.03-.07-.04-.15-.04-.23,0-.32.23-.59.55-.63,4.98-.73,9-1.77,12.06-3.11,3.17-1.39,1.66-4.84-1.13-4.87-4.66-.02-9.05.14-13.16.47-.51.04-.81-.19-.92-.68-1.84-8.06-2.83-16.07-2.97-24.02,0-.48.23-.7.72-.64,5.29.68,10.51,1.27,15.65,1.76,2.44.24,4.13-.71,5.06-2.83.16-.37.15-.78-.03-1.13-.7-1.45-1.79-2.37-3.28-2.76-5.47-1.42-11.29-2.59-17.45-3.5-.23-.03-.4-.23-.4-.46,0-.02,0-.03,0-.05,1.85-23.54,10.01-46.79,24.76-64.68,2.44-2.96,4.8-6,7.07-9.13.53-.72.44-1.73-.2-2.35h0Z"/>
      <path class="cls-1" d="m199.05,418.9c-12.22,8.65-28.22,5.6-35.93-7.44-.25-.43-.54-.45-.86-.07-10.2,12-28.29,12.25-38.13-.28-.52-.67-.73-.58-.64.26,2.37,20.87,15.18,36.1,36.28,38.4,14.05,1.53,31.18-3.35,39.43-15.92.33-.5.51-1.08.51-1.67h0s.01-12.95.01-12.95c0-.55-.22-.66-.67-.34Zm47.18-8.17c-6.95,13.44-24.75,17.45-36.72,7.74-.43-.34-.64-.25-.63.3l.08,13.84c0,.38.11.76.33,1.08,7.9,11.65,22.27,16.75,35.96,16.35,23.5-.68,37.56-17.04,40.03-39.53.08-.76-.12-.85-.59-.25-8.63,10.66-23.63,11.95-34.36,3.59-1.22-.96-2.17-2.2-3.3-3.25-.32-.3-.59-.26-.79.13Zm-47.79-5.3s.03-.08.04-.12c.06-.27-.11-.53-.38-.6-.04,0-.08-.01-.12-.01-8.98.02-17.4-.34-25.26-1.06-3.28-.31-3.85.79-1.72,3.3.92,1.09,1.86,2.19,2.82,3.3,2.13,2.5,4.82,3.94,8.08,4.31,7.41.84,12.92-2.2,16.54-9.13Zm12.09-.12c6.45,13.01,24.31,12.48,28.92-1.71.02-.05.02-.1.02-.16,0-.28-.23-.51-.51-.51-.01,0-.02,0-.04,0l-28.14,1.9c-.17.01-.3.15-.3.32,0,.05.01.1.03.14h0Zm-72.02,5.29c7.44,2.24,14.76-.85,18.45-7.74.03-.06.05-.12.05-.19,0-.2-.15-.37-.36-.39-9.55-1.04-17.96-2.34-25.23-3.89-3.33-.7-4.11.39-2.35,3.29.66,1.09,1.27,2.11,1.84,3.04,1.68,2.79,4.38,4.9,7.54,5.86h.05Zm141.43-10.05c.54-1.15.88-2.35,1.01-3.58.06-.59-.2-.81-.77-.68-9.1,2.11-18.31,3.72-27.61,4.84-.27.03-.48.26-.48.54,0,.09.02.17.06.25,2.28,4.37,6.85,7.7,11.72,8.16,7.41.7,12.77-2.48,16.08-9.52Zm-164.8-5.36l-27.35-8.15s-.02,0-.02,0c-.02,0-.05.02-.05.04h0c-.04.14-.04.15-.04.15-1.68,5.85,3.11,12.36,10.69,14.53h0s-.02,0-.02,0l.11.03c7.58,2.17,15.09-.81,16.77-6.66h0s-.04.14-.04.14c0,0,0-.01,0-.02,0-.02-.01-.04-.03-.05h0Zm204.81-10.68c-8.82,3.13-17.44,6.21-26.57,8.62-.25.07-.43.3-.43.56,0,.12.04.24.11.34,3.44,4.7,9.01,7.73,14.69,6.84,8.04-1.26,12.6-6.31,13.68-15.17.14-1.19-.35-1.59-1.48-1.19Zm-209.67-22.58c-4.29,1.45-8.5,2.24-12.63,2.37-.37.01-.66.18-.87.5-.41.63-.7,1.34-.88,2.14l-5.34,10.69c-.17.34-.08.57.28.69,16.97,6.03,34.95,10.44,53.93,13.24,43.45,6.41,86.28,5.42,128.48-2.95,14.81-2.94,29.82-7.28,43.98-12.7.25-.09.41-.33.41-.6,0-.1-.03-.2-.07-.29l-19.44-38.71-7.66-15.11-4.8-9.47c-.21-.4-.43-.41-.68-.05-9.46,13.38-21.81,23.99-37.05,31.82-7.35,3.77-14.9,5.85-22.65,6.22-10.18.5-20.82-3.89-25.45-13.5-.36-.76-.96-1.09-1.81-.98-2.26.31-4.95.65-6.47,2.54-14.61,18.11-39.21,12.19-55.39.79,0,0-.01-.01-.03-.02-.45-.29-1.05-.16-1.35.29,0,.01-.02.03-.03.04-5.75,10.51-13.91,18.19-24.47,23.05Zm100.53-51.84c-2.53,4.46-4.68,9.44-4.8,14.51-.19,7.71,3.25,12.83,10.33,15.36,9.24,3.31,21.33-.44,29.79-5.16,12.34-6.89,22.33-15.35,29.97-25.38,6.74-8.84,12.39-24.18.42-31.05-7.94-4.56-19.68-2.3-27.99,1.23-8.96,3.82-17.34,9.13-25.15,15.93-.25.22-.62.21-.88,0-1.82-1.65-3.84-3.69-6.25-4.33-7.67-2-14.94,7.12-9.83,13.91,1.15,1.53,2.53,2.82,4.13,3.89.36.24.47.72.25,1.1h0Zm-121.47-24.32c-3.05-3.58-6.8-6.72-11.26-9.41-16.89-10.21-32,1.12-37.16,17.62-5.09,16.2.25,35.1,10.55,48.73,7.84,10.38,19.18,15.87,32.01,10.52,1.03-.43,2.02-.35,2.97.22,17.28,10.41,34.14-3.68,42.79-18.77.34-.6.22-1.34-.29-1.81-8.27-7.49-13.94-16.24-17-26.27-3.23-10.58-2.16-20.35,3.48-29.83.43-.72.23-1.1-.62-1.16-9.26-.56-17.9,3.11-24.16,10.17-.44.5-.88.5-1.31-.01Zm145.43-14.19l-13.48.13c-.83-.22-1.77-.19-2.81.1-.35.09-.47.3-.37.65l3.16,11.15c.18.63.75,1.06,1.4,1.06.31,0,.62-.1.87-.29,6.94-5.19,13.81-9.25,20.61-12.19,1.89-.81,1.81-1.17-.24-1.07l-9.14.45Zm-79.45-.09c-.21.46-.57.63-1.07.52-4.17-1.03-8.73-1.48-13.69-1.35-14.92.36-24.54,11.94-23.13,26.5.86,8.84,3.87,16.48,9.02,22.89,9.67,12.05,25.97,22.57,41.69,22.25,8.43-.17,14.98-3.98,19.65-11.43.73-1.17,1.77-1.62,3.13-1.57,1.85.07,3.8-.4,5.6-.81.53-.12.91-.61.9-1.16-.1-4.56.66-9.11,2.28-13.63.47-1.33.28-2.72-.42-3.93-2.86-5.05-3.71-9.56-2.58-13.53,2.25-7.88,7.44-12.5,15.57-13.88.89-.15,1.22-.66.98-1.53-2.14-7.94-5.31-14.68-9.5-20.22-10.59-13.99-28.69-20.16-41.63-5.31-2.69,3.09-4.79,7.55-6.32,13.38-.24.91-.07,1.95-.48,2.82Zm-22.15-15.46c-10.46-3.8-20.69-8.38-30.17-14.08-.06-.04-.13-.05-.2-.05-.22,0-.4.18-.4.39-.03,9.78-.62,19.02-1.76,27.71,0,.03,0,.05,0,.08.02.19.18.32.36.3.03,0,.05,0,.08-.02,6.81-2.39,13.45-2.58,19.92-.57.38.11.78.05,1.09-.18,4.64-3.34,9.96-5.32,15.94-5.96.22-.03.38-.21.38-.43,0-.08-.02-.16-.07-.23l-4.05-6.08c-.28-.42-.68-.73-1.13-.9h.01Zm-29.46-24.12c6.33,3.82,12.21,6.95,17.63,9.4,1.11.51,1.26.3.45-.62-5.29-6-11.52-12.31-18.7-18.92-.98-.9-1.42-.69-1.33.64l.48,7.08c.07,1.06.55,1.87,1.46,2.41Zm-89.92,31.73c8.45.95,16.67.22,24.66-2.21,25.07-7.6,35.83-34.9,39.97-58.31.09-.51-.11-.69-.59-.56-32.39,8.5-54.31,29.48-67.91,59.57-.05.12-.08.25-.08.37,0,.49.39.9.88.91.98.03,2.01.11,3.07.23Zm-1.34-16.66c-.04.11-.11.21-.19.3-.13.15-.1.2.1.14.32-.09.55-.27.72-.54,13.81-23.49,33.33-39.1,58.55-46.84,3.44-1.05,3.37-1.42-.22-1.12-5.07.43-10.01,1.25-14.81,2.48-24.01,6.13-36,23.62-44.15,45.58Zm81.53-40.74c20.25,14.21,37.54,32.89,51.89,56.04.76,1.23,1.88,1.73,3.36,1.49.35-.06.61-.25.78-.56.65-1.26.99-2.44,1.01-3.52,0-.34-.08-.65-.25-.94-15.25-24.65-34.96-45.87-59.15-61.14-.9-.57-1.73-.88-2.47-.94-2.19-.15-3.27,1.84-2.94,3.8,4.05,24,4.49,47.86,1.32,71.58-.21,1.6.33,2.87,1.64,3.81.36.26.73.34,1.12.24,1.95-.47,3.05-1.7,3.3-3.69,2.74-21.98,2.63-43.89-.33-65.74,0-.02,0-.04,0-.06,0-.25.2-.45.45-.45.09,0,.18.03.26.08Zm242.22-111.86l-7.99,16.6c-.03.07-.05.14-.05.21,0,.18.1.35.27.43l.3.14c5.14,2.39,11.02.41,13.25-4.37l.06-.11c2.29-4.9.02-10.68-5.01-13.03h0s-.19-.09-.19-.09c-.06-.03-.13-.05-.2-.05-.18,0-.35.1-.43.27h0Zm9.93-21.74l-11.05,2.37c-.58.13-1,.64-1,1.24,0,.09,0,.18.03.27l1.81,8.03c.15.63.61,1.11,1.22,1.27,4.91,1.38,8.7,4.12,11.35,8.24,4.07,6.31,3.5,15.19-1.55,20.78-2.45,2.71-5.47,4.58-9.06,5.6-6.18,1.76-10.93-.32-16.21-3.2-.4-.21-.81-.25-1.24-.1-3.11,1.05-5.7,2.56-7.75,4.53,2.07,5.43,4.97,9.96,8.69,13.59,3.42,3.79,7.86,6.06,13.32,6.82.3.04.9-.14,1.78-.53.07.19.3.28.69.25,5.12-.3,9.95-1.75,14.49-4.34,10.96-6.18,19.44-14.72,25.46-25.63,1.93-3.49,5.25-11.3,4.1-15.21.09-.04.18-.12.28-.23.08-.09.12-.2.13-.33.47-5.86-1.06-11.02-4.58-15.48-3.84-4.63-9-7.3-15.48-8-4.98-1.18-10.11-1.16-15.4.08Zm-51.07-11.05c-9.57,2.3-15.91,7.77-19,16.43-3.19,8.9-2.38,17.14,2.43,24.71,3.58,5.62,8.48,9.44,14.69,11.44,6.17,2,12.43,1.74,18.81-.77,3.74-1.48,7.02-3.78,9.84-6.9,3.93-4.46,6.17-9.34,6.73-14.63.59-1.95.78-3.84.55-5.65-1.59-12.93-8.61-21.16-21.07-24.71-4.32-1.27-8.65-1.24-12.97.09Zm-26.73,15.04l10.83-15.77c.04-.05.06-.12.06-.18,0-.1-.05-.2-.13-.26l-1.98-1.37c-4.68-3.16-10.86-2.06-13.87,2.4l-.12.17c-3.05,4.53-1.75,10.67,2.86,13.78l1.9,1.32c.05.04.12.06.18.06.11,0,.21-.06.27-.15h0Zm37.36-23.1c10.22.85,18.5,6.73,24.55,14.63.32.4.72.52,1.2.35,7.41-2.64,15.08-4.02,23.01-4.13.43,0,.64-.22.62-.65-.54-10.6-2.55-22.02-7.51-31.14-.2-.37-.51-.58-.92-.61-17.85-1.43-34.18.98-48.98,7.22-.28.12-.46.39-.46.7,0,.08.01.17.04.25l4.14,12.29c.13.4.41.63.84.69,1.14.15,2.29.28,3.47.39Zm-87.06,10.62c-.77,5.45-.68,10.67.26,15.66.12,1.53.44,2.84.94,3.95,3.63,8.05,9.78,12.63,18.44,13.74,5.28.71,10.29.45,15.02-.79.91.14,1.98.03,3.2-.32,3.52-1,6.96-2.02,10.33-3.07.38-.12.56-.37.54-.77l-.33-6.62c-.03-.59-.33-.93-.91-1.02-1.85-.32-3.54-1.04-5.07-2.18-6.37-4.76-9.1-10.79-8.19-18.09.49-3.89,2.12-7.32,4.89-10.3,8.33-8.96,21.26-7.35,28.7,1.71.31.39.85.55,1.35.39l5.68-1.86c.51-.17.67-.51.5-1.01l-3.72-10.5c-1.61-4.5-3.67-8.75-6.2-12.74-4.12-7.52-9.99-13.03-17.62-16.53-5.47-2.51-11.01-2.46-16.63.14-6.59,3.05-11.88,7.19-15.86,12.4-7.76,10.18-13.47,25.39-15.34,37.82Zm-126.01,3.1c.65.63.74,1.64.2,2.36-2.26,3.12-4.62,6.16-7.06,9.12-14.75,17.88-22.91,41.14-24.76,64.68,0,.02,0,.03,0,.05,0,.23.17.43.4.46,6.17.91,11.98,2.08,17.45,3.5,1.48.39,2.58,1.31,3.28,2.76.17.35.18.76.03,1.11-.94,2.13-2.62,3.07-5.07,2.84-5.14-.49-10.35-1.08-15.65-1.76-.48-.06-.72.15-.72.64.15,7.96,1.14,15.97,2.97,24.02.11.49.42.72.92.68,4.11-.34,8.5-.5,13.16-.47,2.8.02,4.31,3.48,1.13,4.87-3.05,1.34-7.07,2.37-12.06,3.11-.31.05-.55.31-.55.63,0,.08.01.15.04.23l2.14,5.52c.13.33.45.55.8.55.05,0,.1,0,.15-.01,4.43-.79,8.69-.81,12.79-.07.4.07.75-.02,1.07-.26,3.78-2.87,8.41-2.29,12.36.23,23.84,15.22,43.57,36.05,58.91,59.91.34.54.7.55,1.09.04,4.58-5.99,10.87-10.26,18.04-11.75,16.59-3.44,31.17,7.73,39.19,21.23.23.38.57.59,1.01.62,22.95,1.35,44.85-.43,65.72-5.33,17.85-4.2,35.69-11.83,48.59-24.52.07-.07.11-.17.11-.27,0-.15-.09-.29-.24-.35-2.28-.94-4.36-1.96-6.23-3.06-1.05-.62-1.51-1.57-1.38-2.85.34-3.48,3.44-4.16,6.26-3.02,2.42.98,4.76,1.86,7.05,2.62.37.12.68.04.93-.26,5.15-6.44,9.43-13.32,12.86-20.66.18-.39.07-.64-.35-.75-2.32-.59-8.45-2.1-9.04-4.96-.03-.16-.05-.32-.05-.49,0-1.18.87-2.18,2.03-2.34,3.09-.44,6.73.26,9.83.7.49.07.82-.13.99-.61,2.45-7.01,4.16-14.17,5.12-21.48.06-.48-.15-.72-.64-.73-4.54-.04-9.47-.02-14.8.05-1.79.02-3.34-.4-4.66-1.25-2.91-1.89-.97-5.3,1.86-5.71,5.42-.8,11.56-1.32,18.41-1.56.43-.01.65-.23.66-.65.24-6.72-.15-13.53-1.17-20.42-.03-.22-.22-.39-.45-.39-.08,0-.16.02-.22.06-22.84,13.11-40.54,1.52-49.76-20.28-.19-.45-.53-.67-1-.66-16.67.18-28.4-7.18-35.19-22.07-.18-.4-.48-.52-.89-.37-13.48,4.97-29.48,7.39-42.32.74-14.74-7.63-16.92-25.94-14.17-40.78,1.61-8.76,4.5-17.4,8.67-25.94.06-.14-.03-.3-.17-.32-19.05-1.5-38.91-1.52-59.59-.04-1.24.09-2.4-.22-3.49-.94-15.55-10.2-31.79-19.37-49.49-22.97-2.14-.44-4.35-.7-6.61-.77-.53-.01-.99.14-1.4.47-17.62,14.28-21.64,38.33-17.8,60.15.11.62.4.72.88.3,1.85-1.64,7.38-5.47,9.87-3.13Zm182.39,199.9c-.14.02-.25.14-.25.28,0,.13.09.25.22.28,11.38,3.77,17.1,11.66,17.18,23.67.02,2.92-.94,5.93-1.5,8.83-.06.32-.01.63.13.92,10.35,20.88,21.67,43.4,33.97,67.58,2.82,5.56,4.53,10.05,5.12,13.48,3.44,19.81-16.89,33.69-34.5,25.47-.08-.04-.16-.05-.24-.05-.31,0-.57.25-.57.56-1.23,35.64-30.69,58.13-65.5,49.2-9.78-2.51-17.88-7.35-24.32-14.51-.28-.32-.56-.32-.84,0-11.57,13.08-30.35,18.39-47.59,15.76-25.21-3.84-40.51-23.99-42.08-48.73-.02-.37-.33-.66-.7-.66-.09,0-.19.02-.28.06-8.59,3.67-16.56,3.12-23.93-1.64-9.9-6.41-14.3-19.24-9.06-29.98,2.32-4.74,4.74-9.6,7.27-14.57.21-.41.13-.76-.22-1.06-1.36-1.12-2.88-1.44-4.58-.95-13.21,3.79-25.21-.5-33.92-10.64-13-15.12-18.42-32.19-16.27-51.2,1.2-10.56,5.84-19.42,13.93-26.58,9.89-8.75,22.1-9.11,33.78-3.31.51.25.8.09.87-.47,1.61-13.97,2.07-27.35,1.38-40.16-.08-1.35-.66-2.62-1.82-3.38-.01,0-.03-.02-.06-.03-.29-.15-.65-.03-.81.27-.01.02-.02.04-.03.06-7.52,22.34-23.11,40.68-47.1,44.55-9.01,1.45-17.89,1.31-26.65-.44-4.32-.86-7-4.68-5.71-9.09,2.94-10.15,6.27-19.24,10.01-27.27,9.76-21.01,25.29-35.26,48.59-39.81.11-.02.19-.12.19-.23,0-.02,0-.05-.01-.07l-2.07-5.97c-.06-.18-.23-.3-.43-.3-.02,0-.05,0-.07,0-6.06.85-12.38,1.41-18.95,1.67-2.46.1-4.29.56-6.66-.48-.08-.04-.12-.06-.17-.08-1.02-.57-1.39-1.86-.82-2.88.03-.05.05-.09.08-.13.68-1.06,1.6-1.76,2.77-2.1,6.88-1.99,13.93-3.39,21.15-4.19.42-.04.58-.27.48-.68-1.88-8.24-2.84-16.84-2.88-25.82,0-.64-.33-.98-.97-1.03-10.7-.82-21.2-1.33-31.51-1.52-2.65-.05-3.69-1.29-3.13-3.72.09-.38.28-.71.58-.99,1.75-1.67,3.69-2.59,5.8-2.77,9.48-.81,19.06-.69,28.74.37.46.05.7-.15.74-.61,1.86-23.09,9.18-44.09,21.97-63,.24-.37.32-.76.22-1.19-5.8-25.09-2.86-55.46,17.86-73.47C94.19,2.32,96.91-.19,100.22.01c21.8,1.32,41.65,12.44,60.6,24.4.39.25.81.36,1.27.32,21.23-1.45,42.12-1.29,62.67.46.59.06,1.2-.21,1.57-.72,5.57-7.94,13.88-15.42,23.33-18.25,19.15-5.74,34.63,7.69,42.94,24.18.12.23.36.38.62.38.09,0,.18-.02.26-.05,17.79-7.49,36.91-10.08,57.38-7.78,1.32.14,2.7,1.46,3.38,2.54,6.93,10.97,9.81,25.97,10.38,39.34.01.45.24.72.68.8,1.01.19,2.02.46,3.03.81,12.22,4.26,19.08,12.39,20.57,24.41,2.26,18.13-10.91,36.02-24.27,46.61-.27.22-.42.54-.42.89,0,.06,0,.13.02.19,1.6,8.89,2.25,17.6,1.96,26.13,0,.34.16.51.5.52,10.2.18,19.7,1.21,28.52,3.11,2.34.51,4.24,1.89,5.69,4.16.21.32.27.67.19,1.05-.48,2.08-1.93,2.97-4.35,2.68-10.19-1.22-20.38-1.97-30.58-2.26-.43-.01-.67.19-.73.63-.9,7.78-2.61,15.44-5.15,22.99-.02.06-.03.12-.03.18,0,.28.2.52.48.57,8.38,1.46,16.63,3.74,24.73,6.84,1.68.65,2.68,1.89,2.99,3.72.06.33-.03.67-.24.94-.94,1.17-2.34,1.66-4.2,1.47-9.64-1-18.49-2.54-26.57-4.62-.47-.12-.8.04-1,.48-3.38,7.66-7.67,14.88-12.89,21.66,0,0-.02.02-.03.04-.13.22-.06.5.15.63.02,0,.03.02.05.03,8.95,3.98,17.14,8.73,24.56,14.24,2,1.48,3.52,3.25,4.58,5.31.18.36.28.75.28,1.15,0,.8-.38,1.55-1.01,2.04-2.29,1.73-6.63.29-8.69-1.1-7.85-5.28-16.41-10.2-25.68-14.75-.09-.04-.18-.07-.28-.07-.17,0-.34.07-.46.2-15.71,16.75-39.35,26.19-62.02,30.66Zm-142.52-101.11h.09c2.76.15,5.14-2.3,5.3-5.46.17-3.16-1.94-5.85-4.7-5.99h0c-2.76-.15-5.14,2.3-5.3,5.47-.17,3.16,1.94,5.85,4.7,5.99h-.09Zm-5.72,22.3l.24.02c-7.65-.67-13.09-9.95-12.15-20.74h0c.94-10.78,7.91-18.98,15.56-18.31h0c7.65.67,13.09,9.95,12.15,20.74h0c-.94,10.78-7.91,18.98-15.56,18.31h0l-.24-.02Zm160.9-5.65h.06c2.76.25,5.21-2.12,5.49-5.27.28-3.16-1.74-5.91-4.49-6.15h0c-2.76-.24-5.21,2.12-5.49,5.28-.28,3.16,1.74,5.91,4.49,6.15h-.06Zm-5.5,21.92c-7.4-.65-12.84-9.93-11.9-20.7.94-10.78,7.91-18.97,15.55-18.3h0c7.64.67,13.08,9.95,12.14,20.72-.94,10.78-7.9,18.97-15.55,18.3h0l-.24-.02Zm-65.14-1.72c.37-4.22-4.52-8.04-10.91-8.6h0c-6.39-.56-11.87,2.35-12.23,6.49h0c-.36,4.14,4.53,7.96,10.92,8.51h0c6.39.56,11.87-2.35,12.23-6.49h0v.08Zm6.2.59c-.65,7.45-9.16,12.89-18.99,12.03h0c-9.83-.86-17.27-7.7-16.6-15.27.66-7.57,9.17-13.01,19-12.15h0c9.83.86,17.27,7.7,16.6,15.27v.12Z"/>
      <path class="cls-3" d="m336.19,94.37c.08-.16.24-.27.43-.27.07,0,.14.02.2.05l.3.14c-.11-.05-.1-.05-.1-.05,5.03,2.35,7.3,8.13,5.07,12.92l-.16.33c-2.18,4.67-8.07,6.65-13.1,4.31l-.4-.19c-.16-.08-.27-.24-.27-.43,0-.07.02-.15.05-.21l7.99-16.6Zm-205.71,184.38c-11.63,9.68-9.27,29.72,1.56,39.14,1.31,1.15,2.6,1.12,3.86-.08.26-.24.48-.52.66-.83.59-1.05.46-2-.41-2.84-6.72-6.58-9.05-14.48-6.97-23.67.65-2.86,2.46-5.47,5.45-7.85.65-.53.93-1.37.74-2.18-.14-.66-.43-1.19-.87-1.59-1.31-1.22-2.66-1.26-4.04-.11Zm24.84-7.28c.42-.87.24-1.91.48-2.82,1.53-5.83,3.63-10.29,6.32-13.38,12.94-14.85,31.04-8.69,41.63,5.31,4.19,5.53,7.36,12.27,9.5,20.22.24.87-.09,1.38-.98,1.53-8.13,1.38-13.32,6.01-15.57,13.88-1.14,3.97-.28,8.48,2.58,13.53.69,1.21.89,2.6.42,3.93-1.62,4.52-2.38,9.06-2.28,13.62.01.56-.37,1.04-.91,1.17-1.8.42-3.75.88-5.6.81-1.35-.04-2.4.41-3.13,1.57-4.68,7.45-11.23,11.26-19.65,11.43-15.71.32-32.02-10.21-41.69-22.25-5.15-6.42-8.16-14.05-9.02-22.89-1.41-14.57,8.21-26.14,23.13-26.5,4.95-.12,9.52.33,13.69,1.35.5.12.85-.06,1.07-.52Zm-94.74,7.52c-11.4,4.38-17.29,16.02-16.14,27.98.15,1.64.52,3.09,1.09,4.36.51,1.14,1.39,1.64,2.63,1.5,1.88-.22,2.98-1.6,2.55-3.42-2.85-12.14,3.37-24.41,16.26-26.17,1.26-.18,2.2-1.26,2.2-2.53,0-.18-.02-.36-.06-.53l-.06-.27c-.31-1.44-1.2-2.14-2.66-2.1-1.94.05-3.88.45-5.82,1.2Zm30.07,6.77c6.25-7.07,14.9-10.74,24.16-10.17.84.05,1.05.44.62,1.16-5.64,9.48-6.71,19.25-3.48,29.83,3.06,10.03,8.73,18.78,17,26.27.5.46.62,1.21.29,1.8-8.64,15.1-25.51,29.18-42.79,18.78-.95-.57-1.95-.65-2.97-.22-12.83,5.35-24.17-.13-32.01-10.52-10.3-13.63-15.64-32.54-10.55-48.73,5.16-16.49,20.27-27.82,37.16-17.62,4.46,2.69,8.22,5.83,11.26,9.41.43.51.87.51,1.31.01ZM348.47,94.05c4.07,6.31,3.5,15.19-1.55,20.78-2.45,2.71-5.47,4.58-9.06,5.6-6.18,1.76-10.93-.32-16.21-3.2-.4-.21-.81-.25-1.24-.1-3.11,1.05-5.7,2.56-7.75,4.53,2.07,5.43,4.97,9.96,8.69,13.59,3.42,3.79,7.86,6.06,13.32,6.82.3.04.9-.14,1.78-.53.07.19.3.28.69.25,5.12-.3,9.95-1.75,14.49-4.34,10.96-6.18,19.44-14.72,25.46-25.63,1.93-3.49,5.25-11.3,4.1-15.21.09-.04.18-.12.28-.23.08-.09.12-.2.13-.33.47-5.86-1.06-11.02-4.58-15.48-3.84-4.63-9-7.3-15.48-8-4.98-1.18-10.11-1.16-15.4.08l-11.05,2.37c-.58.13-1,.64-1,1.24,0,.09,0,.18.03.27l1.81,8.03c.15.63.61,1.11,1.22,1.27,4.91,1.38,8.7,4.12,11.35,8.24Zm-72.42-16.04c-3.19,8.9-2.38,17.14,2.43,24.71,3.58,5.62,8.48,9.44,14.69,11.44,6.17,2,12.43,1.74,18.81-.77,3.74-1.48,7.02-3.78,9.84-6.9,3.93-4.46,6.17-9.34,6.73-14.63.59-1.95.78-3.84.55-5.65-1.59-12.93-8.61-21.16-21.07-24.71-4.32-1.27-8.65-1.24-12.97.09-9.57,2.3-15.91,7.77-19,16.43Zm-56.23,5.75c3.63,8.05,9.78,12.63,18.44,13.74,5.28.71,10.29.45,15.02-.79.91.14,1.98.03,3.2-.32,3.52-1,6.96-2.02,10.33-3.07.38-.12.56-.37.54-.77l-.33-6.62c-.03-.59-.33-.93-.91-1.02-1.85-.32-3.54-1.04-5.07-2.18-6.37-4.76-9.1-10.79-8.19-18.09.49-3.89,2.12-7.32,4.89-10.3,8.33-8.96,21.26-7.35,28.7,1.71.31.39.85.55,1.35.39l5.68-1.86c.51-.17.67-.51.5-1.01l-3.72-10.5c-1.61-4.5-3.67-8.75-6.2-12.74-4.12-7.52-9.99-13.03-17.62-16.53-5.47-2.51-11.01-2.46-16.63.14-6.59,3.05-11.88,7.19-15.86,12.4-7.76,10.18-13.47,25.39-15.34,37.82-.77,5.45-.68,10.67.26,15.66.12,1.53.44,2.84.94,3.95Zm48.5-7.13c-.06.09-.16.15-.27.15-.07,0-.13-.02-.18-.06l-1.97-1.37c-4.54-3.06-5.84-9.2-2.84-13.66l.22-.32c2.96-4.39,9.14-5.48,13.75-2.37l2.05,1.41c.08.06.13.16.13.26,0,.06-.02.13-.06.18l-10.83,15.77Z"/>
      <path class="cls-2" d="m12.44,246.97c8.15-21.97,20.14-39.45,44.15-45.58,4.8-1.23,9.74-2.05,14.81-2.48,3.59-.3,3.66.07.22,1.12-25.23,7.74-44.75,23.35-58.55,46.84-.16.27-.4.45-.72.54-.2.06-.23.01-.1-.14.08-.09.14-.19.19-.3m1.34,16.66c-1.06-.12-2.09-.2-3.07-.23-.49-.02-.88-.42-.88-.91,0-.13.03-.26.08-.38,13.6-30.09,35.52-51.07,67.91-59.57.48-.13.68.05.59.56-4.14,23.41-14.9,50.71-39.97,58.31-7.99,2.43-16.21,3.17-24.66,2.21Zm279.61,129.5c9.13-2.41,17.75-5.49,26.57-8.62,1.12-.4,1.61,0,1.48,1.19-1.08,8.86-5.64,13.92-13.68,15.17-5.68.89-11.25-2.14-14.69-6.84-.07-.1-.11-.22-.11-.34,0-.26.18-.49.43-.56Zm-178.24,2.06s.04.03.04.05c0,0,0,.01,0,.01h0c.04-.14.04-.14.04-.14-1.68,5.85-9.19,8.83-16.77,6.66h0l-.2-.05c.11.03.11.03.11.03-7.58-2.17-12.37-8.68-10.69-14.53h0s.04-.15.04-.15c0-.02.03-.04.05-.04,0,0,.02,0,.02,0l27.35,8.15Zm164.8,5.36c-3.3,7.05-8.66,10.22-16.08,9.52-4.87-.46-9.44-3.79-11.72-8.16-.04-.08-.06-.16-.06-.25,0-.27.21-.5.48-.54,9.31-1.12,18.51-2.74,27.61-4.84.57-.13.83.1.77.68-.13,1.23-.47,2.43-1.01,3.58Zm-122.98,2.31c-3.69,6.89-11.01,9.98-18.45,7.74-3.21-.98-5.91-3.09-7.61-5.92-.55-.91-1.15-1.91-1.81-3-1.76-2.9-.98-4,2.35-3.29,7.27,1.55,15.68,2.84,25.23,3.89.2.02.36.19.36.39,0,.07-.02.13-.05.19h0Zm82.49.75c-4.61,14.18-22.47,14.72-28.92,1.71-.02-.04-.03-.09-.03-.14,0-.17.13-.31.3-.32l28.14-1.9s.02,0,.04,0c.28,0,.51.23.51.51,0,.05,0,.11-.02.16Zm-41.01,1.83c-3.62,6.93-9.13,9.97-16.54,9.13-3.26-.37-5.95-1.8-8.08-4.31-.95-1.11-1.89-2.21-2.82-3.3-2.14-2.51-1.56-3.61,1.72-3.3,7.86.72,16.28,1.07,25.27,1.06.03,0,.07,0,.11.01.27.06.44.33.38.6,0,.04-.02.08-.04.11h0Zm-104.48-199.2c-.08-.05-.16-.08-.26-.08-.25,0-.45.2-.45.45,0,.02,0,.04,0,.06,2.96,21.85,3.07,43.77.33,65.74-.25,1.99-1.35,3.22-3.3,3.69-.39.1-.76.01-1.12-.24-1.31-.94-1.85-2.21-1.64-3.81,3.17-23.72,2.73-47.58-1.32-71.58-.33-1.96.75-3.95,2.94-3.8.74.05,1.56.36,2.47.94,24.19,15.27,43.9,36.49,59.15,61.14.18.29.26.6.25.94-.02,1.09-.36,2.26-1.01,3.52-.17.32-.43.5-.78.56-1.48.24-2.59-.25-3.36-1.49-14.35-23.15-31.65-41.83-51.89-56.04Z"/>
      <path class="cls-6" d="m215.15,383.03c0-4.47-3.62-8.09-8.09-8.09s-8.09,3.62-8.09,8.09,3.62,8.09,8.09,8.09,8.09-3.62,8.09-8.09h0Zm-41.88-1.31c0-4.47-3.62-8.09-8.09-8.09s-8.09,3.62-8.09,8.09,3.62,8.09,8.09,8.09,8.09-3.62,8.09-8.09h0Zm88.14-2.66c0-4.47-3.63-8.1-8.1-8.1s-8.1,3.63-8.1,8.1,3.63,8.1,8.1,8.1,8.1-3.63,8.1-8.1h0Zm-129.15-3.34c0-4.47-3.62-8.09-8.09-8.09s-8.09,3.62-8.09,8.09,3.62,8.09,8.09,8.09,8.09-3.62,8.09-8.09h0Zm171.59-6.75c0-4.47-3.63-8.1-8.1-8.1s-8.1,3.63-8.1,8.1,3.63,8.1,8.1,8.1,8.1-3.63,8.1-8.1h0Zm-66.46-7.61c0-4.47-3.62-8.09-8.09-8.09s-8.09,3.62-8.09,8.09,3.62,8.09,8.09,8.09,8.09-3.62,8.09-8.09Zm-42.81-3.27c0-4.48-3.63-8.11-8.11-8.11s-8.11,3.63-8.11,8.11,3.63,8.11,8.11,8.11,8.11-3.63,8.11-8.11h0Zm-40.35-1.67c0-4.46-3.62-8.08-8.08-8.08s-8.08,3.62-8.08,8.08,3.62,8.08,8.08,8.08,8.08-3.62,8.08-8.08h0Zm120.5-6.3c0-4.47-3.62-8.09-8.09-8.09s-8.09,3.62-8.09,8.09,3.62,8.09,8.09,8.09,8.09-3.62,8.09-8.09h0Zm15.75-28.94c-11.59,6.84-4.38,20.58,7.66,15.11l19.44,38.71c.05.09.07.19.07.29,0,.27-.16.5-.41.6-14.16,5.42-29.17,9.76-43.98,12.7-42.2,8.38-85.03,9.36-128.48,2.95-18.98-2.8-36.96-7.21-53.93-13.24-.35-.12-.44-.36-.28-.69l5.34-10.69c3.89,2.07,7.3,2.09,10.23.07,1.4-.98,2.79-2.66,4.15-5.07,10.56-4.86,18.72-12.54,24.47-23.03.02-.03.02-.04.03-.06.29-.45.9-.59,1.35-.29.01,0,.03.02.04.03,16.17,11.39,40.77,17.31,55.38-.8,1.52-1.89,4.22-2.24,6.47-2.54.84-.11,1.45.22,1.81.98,4.62,9.61,15.26,13.99,25.45,13.5,7.74-.37,15.29-2.45,22.65-6.22,15.24-7.83,27.59-18.44,37.05-31.82.25-.36.48-.34.68.05l4.8,9.47Zm-69.17-49.48c2.19,4.18,5.53,5.57,10.02,4.19,1.75-.54,3.17-1.59,4.25-3.13.09-.13.14-.27.14-.43,0-.36-.26-.67-.62-.73l-.31-.04,9.14-.45c2.05-.1,2.13.25.24,1.07-6.8,2.94-13.67,7-20.61,12.19-.25.19-.56.29-.87.29-.65,0-1.22-.43-1.4-1.06l-3.16-11.15c-.1-.35.03-.56.37-.65,1.04-.29,1.98-.32,2.81-.1Z"/>
      <path class="cls-4" d="m217.03,202.9c.39-4.14-4.47-7.99-10.86-8.59-6.39-.6-11.88,2.26-12.27,6.4-.39,4.14,4.47,7.99,10.86,8.59,6.39.6,11.88-2.26,12.27-6.4"/>
    </g>
  </g>
</svg>