<svg width="378" height="67" viewBox="0 0 378 67" fill="none" xmlns="http://www.w3.org/2000/svg">
<path d="M377.235 19.5375C377.235 21.3311 375.695 22.8082 373.766 22.8082C371.837 22.8082 370.297 21.3311 370.297 19.5375C370.297 17.7438 371.837 16.2668 373.766 16.2668C375.695 16.2668 377.235 17.7438 377.235 19.5375Z" stroke="white" stroke-width="0.5"/>
<path d="M374.351 18.4651C374.354 18.3752 374.335 18.2859 374.296 18.2048C374.248 18.1244 374.181 18.0572 374.1 18.0095C374.013 17.9652 373.919 17.9369 373.822 17.9259C373.701 17.9156 373.58 17.9156 373.459 17.9259H372.836V19.2182H373.357C373.533 19.2182 373.691 19.2182 373.794 19.2182C373.907 19.1919 374.014 19.1446 374.11 19.0788C374.188 19.0177 374.248 18.9377 374.286 18.8463C374.333 18.7414 374.353 18.6261 374.342 18.5116M375.811 21.2451H374.881L373.496 19.7575H372.836V21.2451H372.157V17.368H373.45C373.71 17.368 373.924 17.368 374.1 17.368C374.27 17.3895 374.434 17.4432 374.584 17.5261C374.742 17.6081 374.877 17.7298 374.974 17.8794C375.063 18.0347 375.105 18.2122 375.095 18.3908C375.096 18.6383 375.011 18.8784 374.854 19.0695C374.67 19.2597 374.448 19.4087 374.203 19.5065L375.811 21.2451Z" fill="white"/>
<path d="M84.1158 16.0478H88.3277V47.2693H115.951V50.9883H84.1158V16.0478Z" fill="white"/>
<path d="M119.01 25.8661H122.887V51.0348H119.01V25.8661Z" fill="white"/>
<path d="M118.666 16.0478H123.147V20.5106H118.666V16.0478Z" fill="white"/>
<path d="M128.428 25.8661H132.333V29.5294C134.974 27.2142 138.442 25.1037 142.905 25.1037C146.038 25.1037 153.3 25.8382 153.3 34.4013V51.0348H149.395V35.2288C149.488 29.2597 145.164 28.4508 142.431 28.4508C138.145 28.4508 134.593 31.0914 132.333 33.4902V51.0627H128.428V25.8661Z" fill="white"/>
<path d="M186.585 46.3116V16.0478H182.69V29.3341C179.222 26.7773 176.655 25.1037 171.43 25.1037C160.654 25.1037 156.991 32.8579 156.991 38.669C156.991 44.48 161.035 51.7972 170.751 51.7972C176.525 51.7972 179.063 50.1701 182.838 47.0926L183.331 51.0255H186.883C186.818 50.2631 186.585 46.9904 186.585 46.3116ZM182.69 43.1411C180.272 45.7538 175.949 48.478 171.765 48.478C164.94 48.478 160.896 43.9686 160.896 38.7712C160.896 31.1007 166.474 28.4229 171.663 28.4229C173.749 28.4085 175.813 28.8437 177.716 29.6988C179.619 30.554 181.315 31.809 182.69 33.3786V43.1411Z" fill="white"/>
<path d="M204.911 48.478C198.403 48.478 194.572 43.9686 194.182 39.2547H218.913C219.109 29.2969 212.07 25.113 204.037 25.113C196.283 25.113 190.286 30.3476 190.286 38.3435C190.286 46.0513 196.06 51.8065 204.53 51.8065C213 51.8065 215.594 48.5338 218.179 45.7817L215.157 43.5781C213.558 45.5585 211.41 48.478 204.911 48.478ZM204.372 28.4229C210.341 28.4229 213.911 31.7794 214.664 35.9354H194.321C195.446 31.3145 198.644 28.4229 204.372 28.4229V28.4229Z" fill="white"/>
<path d="M222.995 25.8661H226.863V29.5293C229.522 27.2142 232.971 25.0944 237.453 25.0944C240.586 25.0944 247.829 25.8289 247.829 34.392V51.0348H243.943V35.2288C244.045 29.2597 239.722 28.4508 236.96 28.4508C232.692 28.4508 229.122 31.0913 226.863 33.4901V51.0627H222.976L222.995 25.8661Z" fill="white"/>
<path d="M270.562 16.0478H274.792V47.2693H302.397V50.9883H270.562V16.0478Z" fill="white"/>
<path d="M330.215 47.1298V33.1833C330.215 26.7215 323.707 25.0479 317.943 25.0479C309.175 25.0479 306.441 28.6461 304.991 30.4312L307.929 32.4488C309.175 31.0077 311.536 28.2091 318.221 28.2091C322.21 28.2091 326.31 29.5108 326.31 32.9323V33.8621C316.492 35.015 303.448 35.3497 303.448 44.0895C303.448 50.5978 309.556 51.7414 313.675 51.7414C318.14 51.7499 322.506 50.4294 326.217 47.948C326.268 48.9766 326.434 49.9964 326.71 50.9883H330.615C330.364 49.7172 330.23 48.4255 330.215 47.1298V47.1298ZM326.348 44.6845C323.837 46.0327 318.975 48.6174 313.554 48.6174C311.629 48.6174 307.194 48.0968 307.194 44.136C307.194 39.2919 314.902 38.2227 326.348 37.1255V44.6845Z" fill="white"/>
<path d="M351.34 25.1037C346.142 25.1037 343.446 26.7865 340.08 29.3434V16.0478H336.175V46.3116C336.175 46.9904 335.934 50.2445 335.896 51.0348H338.927L339.857 47.1019C343.576 50.1794 346.207 51.8065 351.786 51.8065C361.697 51.8065 365.733 44.3684 365.733 38.6782C365.733 32.9881 362.097 25.1037 351.34 25.1037ZM351.005 48.4873C346.803 48.4873 342.479 45.698 340.08 43.1504V33.3786C341.448 31.8061 343.141 30.5489 345.041 29.6933C346.941 28.8378 349.005 28.4044 351.089 28.4229C356.286 28.4229 361.874 31.1193 361.874 38.7712C361.874 43.9686 357.83 48.478 351.005 48.478V48.4873Z" fill="white"/>
<path d="M51.1371 0H8.86996C6.5175 0 4.26139 0.934511 2.59795 2.59795C0.934511 4.26139 0 6.5175 0 8.86996L0 57.3386C-2.56853e-06 58.5026 0.22956 59.6551 0.675545 60.7302C1.12153 61.8053 1.77518 62.7819 2.59908 63.6041C3.42297 64.4263 4.40094 65.0779 5.47698 65.5216C6.55302 65.9653 7.70602 66.1925 8.86996 66.19H28.395V54.4006L8.76769 43.0574C8.52708 42.9196 8.32722 42.7206 8.18842 42.4805C8.04961 42.2405 7.97681 41.968 7.97739 41.6907V18.0932C7.97749 17.8173 8.05068 17.5464 8.1895 17.3079C8.32831 17.0695 8.52781 16.8721 8.76769 16.7358L29.2225 4.93705C29.4617 4.80005 29.7325 4.72797 30.0082 4.72797C30.2838 4.72797 30.5547 4.80005 30.7938 4.93705L51.2301 16.7358C51.4786 16.866 51.6875 17.0608 51.8347 17.2997C51.982 17.5385 52.0622 17.8127 52.0669 18.0932V41.6907C52.0674 41.968 51.9946 42.2405 51.8558 42.4805C51.717 42.7206 51.5172 42.9196 51.2766 43.0574L31.612 54.4006V66.19H51.1371C53.4847 66.1875 55.7356 65.2545 57.3965 63.5953C59.0574 61.9362 59.9928 59.6863 59.9978 57.3386V8.86996C59.9978 6.51911 59.0645 4.26441 57.4031 2.60124C55.7417 0.938063 53.4879 0.0024642 51.1371 0" fill="#FAFAFA" fill-opacity="0.44"/>
<path d="M31.3424 8.6468C31.2747 8.68479 31.2183 8.74013 31.1791 8.80713C31.1399 8.87413 31.1192 8.95037 31.1193 9.02801V27.1677C31.122 27.2459 31.1448 27.322 31.1854 27.3888C31.2261 27.4556 31.2833 27.5108 31.3515 27.5491C31.4197 27.5874 31.4966 27.6075 31.5748 27.6075C31.653 27.6074 31.7298 27.5873 31.798 27.5489L47.5017 18.4837C47.5689 18.4428 47.6246 18.3855 47.6637 18.3173C47.7027 18.249 47.7238 18.1719 47.7249 18.0932C47.7259 18.0154 47.7056 17.9388 47.6663 17.8716C47.627 17.8044 47.5701 17.7492 47.5017 17.712L31.798 8.6468C31.7291 8.60588 31.6504 8.58429 31.5702 8.58429C31.49 8.58429 31.4113 8.60588 31.3424 8.6468Z" fill="white" fill-opacity="0.9"/>
<path d="M28.1812 8.6468L12.4775 17.712C12.4091 17.7492 12.3522 17.8044 12.3129 17.8716C12.2735 17.9388 12.2533 18.0154 12.2543 18.0932C12.2536 18.1722 12.2739 18.25 12.3131 18.3186C12.3523 18.3872 12.409 18.4442 12.4775 18.4837L28.1812 27.5489C28.2493 27.5873 28.3262 27.6074 28.4044 27.6075C28.4826 27.6075 28.5595 27.5874 28.6277 27.5491C28.6959 27.5108 28.7531 27.4556 28.7937 27.3888C28.8344 27.322 28.8572 27.2459 28.8599 27.1677V9.02801C28.862 8.94998 28.8422 8.87292 28.8028 8.80556C28.7633 8.73819 28.7058 8.6832 28.6368 8.6468C28.5678 8.60588 28.4892 8.58429 28.409 8.58429C28.3288 8.58429 28.2501 8.60588 28.1812 8.6468" fill="white" fill-opacity="0.9"/>
<path d="M10.9061 20.4548C10.8361 20.4908 10.7773 20.5454 10.7362 20.6127C10.6952 20.68 10.6736 20.7573 10.6737 20.8361V38.9572C10.6769 39.039 10.6996 39.1189 10.7401 39.1901C10.7805 39.2612 10.8375 39.3217 10.9061 39.3663C10.9751 39.4072 11.0538 39.4288 11.1339 39.4288C11.2141 39.4288 11.2928 39.4072 11.3617 39.3663L27.0562 30.2918C27.1265 30.256 27.1856 30.2014 27.2269 30.1342C27.2681 30.0669 27.2899 29.9895 27.2899 29.9106C27.2899 29.8316 27.2681 29.7543 27.2269 29.687C27.1856 29.6197 27.1265 29.5651 27.0562 29.5294L11.3617 20.4548C11.2959 20.4058 11.216 20.3793 11.1339 20.3793C11.0519 20.3793 10.972 20.4058 10.9061 20.4548" fill="#FCFCFC" fill-opacity="0.55"/>
<path d="M28.1812 32.235L12.4775 41.3095C12.4098 41.3475 12.3534 41.4028 12.3141 41.4698C12.2748 41.5368 12.2542 41.6131 12.2542 41.6907C12.2542 41.7684 12.2748 41.8446 12.3141 41.9116C12.3534 41.9786 12.4098 42.0339 12.4775 42.0719L28.1812 51.1371C28.2486 51.1823 28.3279 51.2064 28.409 51.2064C28.4901 51.2064 28.5694 51.1823 28.6368 51.1371C28.7081 51.0985 28.7669 51.0404 28.8064 50.9696C28.8459 50.8988 28.8645 50.8183 28.86 50.7373V32.6255C28.8588 32.5465 28.8372 32.4692 28.7971 32.4012C28.7571 32.3331 28.7001 32.2766 28.6316 32.2373C28.5632 32.1979 28.4857 32.177 28.4067 32.1766C28.3278 32.1762 28.2501 32.1963 28.1812 32.235" fill="#FCFCFC" fill-opacity="0.55"/>
<path d="M31.3424 32.2349C31.274 32.2745 31.2173 32.3314 31.1781 32.4C31.1389 32.4686 31.1186 32.5464 31.1193 32.6255V50.7559C31.1172 50.8339 31.137 50.911 31.1765 50.9783C31.2159 51.0457 31.2734 51.1007 31.3424 51.1371C31.4128 51.1737 31.4909 51.1929 31.5702 51.1929C31.6495 51.1929 31.7277 51.1737 31.798 51.1371L47.5018 42.0719C47.5708 42.0355 47.6283 41.9805 47.6677 41.9131C47.7072 41.8457 47.727 41.7687 47.7249 41.6907C47.7245 41.6106 47.7038 41.532 47.6648 41.462C47.6258 41.3921 47.5697 41.3332 47.5018 41.2909L31.798 32.2257C31.7285 32.1866 31.65 32.166 31.5702 32.166C31.4904 32.166 31.412 32.1866 31.3424 32.2257" fill="#FAFAFA" fill-opacity="0.4"/>
<path d="M48.6174 20.4548L32.923 29.5108C32.8529 29.5467 32.7941 29.6013 32.7531 29.6686C32.7121 29.7359 32.6904 29.8132 32.6906 29.892C32.6917 29.9717 32.7138 30.0497 32.7546 30.1183C32.7954 30.1868 32.8535 30.2434 32.923 30.2825L48.6174 39.3477C48.6864 39.3886 48.7651 39.4102 48.8452 39.4102C48.9254 39.4102 49.0041 39.3886 49.073 39.3477C49.1434 39.3049 49.2017 39.2449 49.2424 39.1733C49.283 39.1017 49.3048 39.0209 49.3055 38.9386V20.8267C49.3056 20.748 49.2839 20.6707 49.2429 20.6034C49.2019 20.5361 49.1431 20.4815 49.073 20.4455C49.0056 20.4004 48.9263 20.3763 48.8452 20.3763C48.7641 20.3763 48.6848 20.4004 48.6174 20.4455" fill="#FAFAFA" fill-opacity="0.4"/>
</svg>
