<svg width="100" height="79" viewBox="0 0 100 79" fill="none" xmlns="http://www.w3.org/2000/svg">
<path d="M1.9685 0H98.0315C99.1189 0 100 1.08742 100 1.9685V11.811C100 12.8984 99.1189 13.7795 98.0315 13.7795H1.9685C0.881086 13.7795 0 12.6921 0 11.811V1.9685C0 0.881086 0.881086 0 1.9685 0Z" fill="white"/>
<path d="M1.9685 32.4803H98.0315C99.1189 32.4803 100 33.5677 100 34.4488V44.2913C100 45.3788 99.1189 46.2598 98.0315 46.2598H1.9685C0.881086 46.2598 0 45.1724 0 44.2913V34.4488C0 33.3614 0.881086 32.4803 1.9685 32.4803Z" fill="white"/>
<path d="M1.9685 64.9606H98.0315C99.1189 64.9606 100 66.0481 100 66.9291V76.7717C100 77.8591 99.1189 78.7402 98.0315 78.7402H1.9685C0.881086 78.7402 0 77.6527 0 76.7717V66.9291C0 65.8417 0.881086 64.9606 1.9685 64.9606Z" fill="white"/>
</svg>
