<svg width="100" height="101" viewBox="0 0 100 101" fill="none" xmlns="http://www.w3.org/2000/svg">
<path d="M2.3444 96.0023C3.85264 97.5858 5.94289 98.4817 8.12985 98.4817C10.2604 98.4709 12.3155 97.6881 13.9144 96.2785L49.7248 61.5699L84.4333 97.3803V97.3794C85.7909 99.1934 87.9538 100.224 90.2179 100.134C92.404 100.134 94.4952 99.2383 96.0024 97.6556C97.5546 96.1465 98.4522 94.0904 98.5041 91.9266C98.5552 89.7638 97.7562 87.6663 96.2785 86.0856L61.5699 50.2752L97.3803 15.5667H97.3794C98.9998 14.097 99.9459 12.0274 99.9977 9.84135C100.05 7.65432 99.2033 5.5425 97.6556 3.9976C96.1465 2.44542 94.0904 1.5478 91.9266 1.49593C89.7638 1.44481 87.6663 2.24376 86.0856 3.72151L50.2752 38.4301L15.5667 2.61966V2.62056C14.097 1.00023 12.0274 0.0541418 9.84136 0.00226262C7.65433 -0.0497451 5.5425 0.796726 3.99761 2.3444C2.44543 3.85353 1.5478 5.9096 1.49593 8.07338C1.44481 10.2362 2.24377 12.3337 3.72152 13.9144L38.4301 49.7248L2.61966 84.4333H2.62056C1.00023 85.903 0.0541418 87.9726 0.00226262 90.1586C-0.0497451 92.3457 0.796726 94.4574 2.3444 96.0023Z" fill="white"/>
</svg>
